<svg xmlns="http://www.w3.org/2000/svg" xmlns:xlink="http://www.w3.org/1999/xlink" width="1271" height="1153.902" viewBox="0 0 1271 1153.902">
  <defs>
    <radialGradient id="radial-gradient" cx="0.5" cy="0.5" r="0.947" gradientTransform="matrix(1, 0, 0, 1.079, 0, -0.039)" gradientUnits="objectBoundingBox">
      <stop offset="0" stop-color="#b76b40"/>
      <stop offset="0.176" stop-color="#9b4e23"/>
      <stop offset="0.406" stop-color="#8d4318"/>
      <stop offset="0.523" stop-color="#683309"/>
      <stop offset="0.657" stop-color="#7a6d65"/>
      <stop offset="0.807" stop-color="#c17a57"/>
      <stop offset="1" stop-color="#6b3616"/>
      <stop offset="1" stop-color="#e95707"/>
    </radialGradient>
  </defs>
  <g id="LogoFinalDark" transform="translate(-325.469 -1869.867)">
    <g id="Grupo_67" data-name="Grupo 67" transform="translate(-152.383)">
      <g id="Sustracción_57" data-name="Sustracción 57" transform="matrix(1, -0.017, 0.017, 1, 481.668, 1891.425)" stroke-linecap="round" fill="url(#radial-gradient)">
        <path d="M 944.1455078125 827.2630615234375 C 834.3731079101563 799.0862426757813 720.0087280273438 784.507568359375 604.1278076171875 783.9275512695313 L 596.9541625976563 783.9095458984375 C 484.9361267089844 783.9095458984375 374.5542907714844 797.0031127929688 268.786376953125 822.8294067382813 C 234.2675476074219 767.7528076171875 190.5945434570313 715.6221313476563 138.9081420898438 667.8106689453125 L 134.4308166503906 663.7045288085938 C 100.9687652587891 633.18310546875 64.07305908203125 604.3621826171875 24.67847061157227 577.9675903320313 C 37.3806266784668 530.1265258789063 43.65134048461914 481.0837097167969 43.32331085205078 432.0865173339844 C 42.88209915161133 371.4905700683594 32.45477676391602 311.21826171875 12.31346893310547 252.6371307373047 C 75.34822845458984 222.1894836425781 133.7649383544922 186.5336303710938 186.0503082275391 146.5841979980469 L 191.0291442871094 142.7491912841797 C 242.5675659179688 102.8199691772461 287.9517211914063 58.74364471435547 325.9802551269531 11.69225597381592 C 438.4364013671875 41.38724136352539 555.7745361328125 56.73955917358398 674.8738403320313 57.33586120605469 L 682.0231323242188 57.35386276245117 C 771.7650146484375 57.35386276245117 860.9786376953125 48.88730239868164 947.3079223632813 32.18242263793945 C 1000.168212890625 99.68789672851563 1066.619506835938 160.7239685058594 1144.9091796875 213.6685333251953 L 1150.259765625 217.2600250244141 C 1176.060546875 234.4655303955078 1203.304077148438 250.8957977294922 1231.351806640625 266.1695861816406 C 1216.651977539063 317.4828491210938 1209.382934570313 370.1298217773438 1209.73681640625 422.7857055664063 C 1210.137939453125 478.7931518554688 1219.060668945313 534.5234985351563 1236.272094726563 588.7166748046875 C 1219.443237304688 597.5568237304688 1202.890258789063 606.8262329101563 1186.984130859375 616.3190307617188 L 1181.461181640625 619.628173828125 C 1085.189331054688 677.8162841796875 1005.382507324219 747.6472778320313 944.1455078125 827.2630615234375 Z" stroke="none"/>
        <path d="M 940.2616577148438 815.9583740234375 C 1001.71044921875 737.5171508789063 1081.052856445313 668.6317749023438 1176.296997070313 611.06494140625 L 1181.859375 607.7320556640625 C 1195.596801757813 599.5335693359375 1209.810668945313 591.500732421875 1224.268798828125 583.7626342773438 C 1208.371948242188 531.128662109375 1200.125732421875 477.1217651367188 1199.737060546875 422.852783203125 C 1199.39453125 371.8733825683594 1206.067504882813 320.9102783203125 1219.589599609375 271.1181640625 C 1193.737915039063 256.7970886230469 1168.612426757813 241.5182037353516 1144.6953125 225.5689697265625 L 1139.307373046875 221.9520568847656 C 1062.011352539063 169.6794128417969 996.096923828125 109.5647354125977 943.2218017578125 43.14450073242188 C 858.1317138671875 59.21293258666992 770.3305053710938 67.35369110107422 682.0263061523438 67.35369110107422 L 674.82373046875 67.335693359375 C 557.0869140625 66.74638366699219 441.0325927734375 51.83107376098633 329.66796875 22.9928092956543 C 292.0043029785156 68.76493835449219 247.4728851318359 111.6698760986328 197.1835479736328 150.6311492919922 L 192.1213684082031 154.5302429199219 C 141.4968566894531 193.2107696533203 85.20813751220703 227.8945617675781 24.58576774597168 257.7756652832031 C 43.2357177734375 314.7412719726563 52.89510345458984 373.2242431640625 53.32300567626953 432.0195007324219 C 53.64128494262695 479.5523986816406 47.86114120483398 527.1229248046875 36.12979125976563 573.6334838867188 C 73.72738647460938 599.2137451171875 109.0144424438477 626.9867553710938 141.1648254394531 656.3117065429688 L 145.6986389160156 660.4696655273438 C 196.1280670166016 707.1185302734375 239.0370941162109 757.8494873046875 273.3987731933594 811.4292602539063 C 377.8170776367188 786.527099609375 486.5941772460938 773.9094848632813 596.9531860351563 773.9094848632813 L 604.1779174804688 773.927490234375 C 718.6469116210938 774.5006713867188 831.6386108398438 788.6351318359375 940.2616577148438 815.9583740234375 M 947.641357421875 838.4993286132813 L 947.6331787109375 838.4935302734375 C 836.8330078125 809.5086059570313 721.2431640625 794.5138549804688 604.0777587890625 793.9273071289063 L 603.8257446289063 793.9260864257813 C 601.5350952148438 793.9150390625 599.2423706054688 793.9095458984375 596.953125 793.9095458984375 C 483.8377075195313 793.9095458984375 372.4748229980469 807.3421020507813 265.8335571289063 833.8560791015625 L 264.8711853027344 833.4915161132813 L 264.8302917480469 833.473876953125 C 264.3082885742188 833.2738647460938 263.7782897949219 833.0740356445313 263.2562866210938 832.8800659179688 C 228.7599182128906 776.8026123046875 184.6399230957031 723.7362670898438 132.1175537109375 675.1514892578125 C 130.5866394042969 673.7340698242188 129.1375579833984 672.40966796875 127.6966400146484 671.09716796875 C 92.98700714111328 639.4378662109375 54.53500747680664 609.6237182617188 13.40900707244873 582.4827880859375 L 13.32482528686523 582.1051635742188 L 13.26609802246094 581.826416015625 C 26.9120979309082 532.8142700195313 33.6602783203125 482.4578857421875 33.32337188720703 432.1535034179688 L 33.32228088378906 431.9795227050781 C 32.87118911743164 370.0222473144531 21.72027969360352 308.2147827148438 0.179734468460083 248.2738800048828 C 0.261552631855011 248.0427856445313 0.3197344541549683 247.8487854003906 0.3624617457389832 247.6596984863281 L 0.3864617347717285 247.5844268798828 L 0.5137344598770142 247.1964263916016 C 65.79373168945313 216.2722473144531 126.1731872558594 179.7493286132813 179.9788208007813 138.6382446289063 C 182.021728515625 137.0789642333984 183.5770111083984 135.8809661865234 184.8735504150391 134.8684234619141 C 237.6724548339844 93.96260070800781 283.8895568847656 48.7082405090332 322.2415466308594 0.3626034259796143 L 321.8910217285156 0.2680579721927643 L 321.825927734375 0.2504216134548187 L 321.9411926269531 0.2451488822698593 L 322.3544616699219 0.2240579724311829 L 322.2409973144531 0.3456943333148956 C 435.7766418457031 30.9196949005127 554.4375610351563 46.73278427124023 674.9238891601563 47.33587646484375 C 677.2890014648438 47.34772109985352 679.6619873046875 47.35366058349609 682.0263671875 47.35366058349609 C 773.230712890625 47.35366058349609 863.82421875 38.55574417114258 951.4295654296875 21.18496704101563 L 951.330810546875 21.05078506469727 L 951.232666015625 20.91714859008789 L 951.1504516601563 20.81224060058594 L 951.1177368164063 20.77733039855957 L 951.0108032226563 20.63169479370117 L 950.87158203125 20.45114898681641 L 950.748291015625 20.28805732727051 L 950.6088256835938 20.11333084106445 L 950.5675659179688 20.04932975769043 C 951.7188110351563 20.31460380554199 952.9151611328125 20.51878547668457 954.1344604492188 20.64733123779297 L 953.6470336914063 20.73769378662109 L 952.0146484375 21.0660572052002 L 951.6002807617188 21.15096664428711 L 951.4295654296875 21.18496704101563 C 1004.23193359375 89.77987670898438 1071.210815429688 151.7567901611328 1150.51123046875 205.3847808837891 C 1152.292846679688 206.5831451416016 1154.033569335938 207.7522430419922 1155.8232421875 208.9506072998047 C 1183.429931640625 227.3602447509766 1212.726318359375 244.8856964111328 1242.898681640625 261.0398864746094 L 1243.161743164063 261.4531555175781 C 1227.253784179688 314.2016906738281 1219.371948242188 368.4578857421875 1219.736694335938 422.7184143066406 L 1219.73779296875 422.8867797851563 C 1220.14794921875 480.14404296875 1229.68701171875 537.2880859375 1248.089599609375 592.7311401367188 C 1247.685424804688 593.29931640625 1247.356689453125 593.7889404296875 1246.955200195313 594.4253540039063 C 1228.212158203125 604.1174926757813 1209.76025390625 614.3717041015625 1192.108764648438 624.9060668945313 C 1190.278442382813 625.9933471679688 1188.44775390625 627.0925903320313 1186.625610351563 628.1915283203125 C 1089.390625 686.961669921875 1009.176086425781 757.6951293945313 948.2102661132813 838.4267578125 L 947.9095458984375 838.4658813476563 L 947.6331787109375 838.4876708984375 L 947.641357421875 838.4993286132813 Z" stroke="none" fill="#3d3d3d"/>
      </g>
      <g id="Grupo_64" data-name="Grupo 64" transform="matrix(1, -0.017, 0.017, 1, 655.122, 1976.906)">
        <g id="Grupo_5" data-name="Grupo 5" transform="translate(0 0)">
          <g id="Grupo_55" data-name="Grupo 55" transform="translate(0.002 2.843)">
            <g id="Trazado_29" data-name="Trazado 29" transform="translate(223.531 0.155)" stroke-linecap="round">
              <path d="M 231.1741027832031 330.0591125488281 C 230.6509246826172 330.0591125488281 230.1421661376953 330.0578918457031 229.6187438964844 330.0553588867188 C 214.1470489501953 329.9805908203125 198.6776885986328 328.7785339355469 183.6404571533203 326.4824829101563 C 168.9864044189453 324.2449340820313 154.5651550292969 320.9422912597656 140.7772827148438 316.6662902832031 C 127.241340637207 312.4683532714844 114.1788101196289 307.29052734375 101.9525146484375 301.2766418457031 C 89.84463500976563 295.3210144042969 78.45133972167969 288.4939575195313 68.08910369873047 280.9850769042969 C 57.72969055175781 273.4783020019531 48.31575012207031 265.2284240722656 40.10869216918945 256.4647216796875 C 31.82598495483398 247.6201782226563 24.70022010803223 238.1743621826172 18.92939758300781 228.3895874023438 C 13.05422019958496 218.4279479980469 8.523750305175781 208.0120086669922 5.463867664337158 197.4311828613281 C 2.324926376342773 186.5771789550781 0.6955734491348267 175.4138336181641 0.6210440397262573 164.2512969970703 C 0.5038675665855408 146.712646484375 4.184632301330566 129.4664764404297 11.56110286712646 112.9918899536133 C 18.69974899291992 97.04847717285156 29.18951416015625 82.04830169677734 42.73910140991211 68.40788269042969 C 52.91286849975586 58.16588592529297 64.75033569335938 48.77523803710938 77.92269134521484 40.49676895141602 C 91.15357208251953 32.18141555786133 105.7241592407227 24.99306297302246 121.2298049926758 19.13135719299316 C 137.010986328125 13.16541576385498 153.7797546386719 8.568180084228516 171.0701599121094 5.46735668182373 C 188.8682250976563 2.275474548339844 207.2994537353516 0.6570627689361572 225.851806640625 0.6570627689361572 C 226.3749847412109 0.6570627689361572 226.8837432861328 0.6582980155944824 227.4071655273438 0.6608274579048157 C 242.8788604736328 0.7355921268463135 258.3482055664063 1.937651038169861 273.3854675292969 4.233709812164307 C 288.0395202636719 6.471180438995361 302.4607543945313 9.77382755279541 316.2486267089844 14.04988670349121 C 329.7845764160156 18.24776840209961 342.84716796875 23.42559242248535 355.0733947753906 29.43947410583496 C 367.1812744140625 35.39512252807617 378.5745849609375 42.2221794128418 388.9367980957031 49.73106384277344 C 399.2962341308594 57.23782730102539 408.7102355957031 65.48770904541016 416.9172668457031 74.25141906738281 C 425.1999816894531 83.095947265625 432.32568359375 92.54177093505859 438.0965881347656 102.326530456543 C 443.9716796875 112.2881774902344 448.5021667480469 122.7041244506836 451.5621032714844 133.2849426269531 C 454.7009887695313 144.1389465332031 456.3303527832031 155.3022918701172 456.4048767089844 166.4648284912109 C 456.5220336914063 184.0034790039063 452.8412780761719 201.2496490478516 445.4648132324219 217.7242431640625 C 438.3262329101563 233.6676483154297 427.8364562988281 248.6678924560547 414.286865234375 262.3082275390625 C 404.113037109375 272.5502319335938 392.275634765625 281.9408874511719 379.103271484375 290.2194213867188 C 365.8724060058594 298.5346984863281 351.3018188476563 305.7231140136719 335.7961730957031 311.5848388671875 C 320.0149230957031 317.55078125 303.2462158203125 322.1480102539063 285.9557495117188 325.2488403320313 C 268.1576843261719 328.4407043457031 249.7264556884766 330.0591125488281 231.1741027832031 330.0591125488281 Z" stroke="none"/>
              <path d="M 225.851806640625 1.157012939453125 C 207.3289337158203 1.157012939453125 188.9274597167969 2.77276611328125 171.1583862304688 5.95941162109375 C 153.8981018066406 9.054901123046875 137.1591491699219 13.64389038085938 121.4065856933594 19.59893798828125 C 105.9320373535156 25.44894409179688 91.39144897460938 32.62234497070313 78.18875122070313 40.92001342773438 C 65.04852294921875 49.17828369140625 53.24093627929688 58.54507446289063 43.0938720703125 68.7601318359375 C 29.5869140625 82.35758972167969 19.13134765625 97.30799865722656 12.0174560546875 113.1961212158203 C 4.670440673828125 129.6050109863281 1.00433349609375 146.7812957763672 1.12103271484375 164.2479400634766 C 1.195281982421875 175.3646545410156 2.81805419921875 186.4823608398438 5.94415283203125 197.2922973632813 C 8.992462158203125 207.8328247070313 13.50616455078125 218.2100067138672 19.36004638671875 228.1355895996094 C 25.11227416992188 237.8888244628906 32.21591186523438 247.3051147460938 40.4736328125 256.1228942871094 C 48.65899658203125 264.8634033203125 58.04885864257813 273.0920715332031 68.38250732421875 280.5801696777344 C 78.72186279296875 288.0724792480469 90.0906982421875 294.8848266601563 102.1732177734375 300.8279418945313 C 114.3761596679688 306.8303527832031 127.4142761230469 311.9984741210938 140.9253845214844 316.188720703125 C 154.6895751953125 320.4573669433594 169.0863952636719 323.7544250488281 183.7159118652344 325.9881896972656 C 198.7290954589844 328.2805480957031 214.1738128662109 329.480712890625 229.6211547851563 329.5553588867188 C 230.1438751220703 329.5578918457031 230.6518096923828 329.5591125488281 231.1739196777344 329.5591125488281 C 249.6968078613281 329.5591125488281 268.0983276367188 327.943359375 285.8674011230469 324.7566528320313 C 303.127685546875 321.6612548828125 319.8666381835938 317.0722351074219 335.6192016601563 311.1171264648438 C 351.0938110351563 305.2671203613281 365.6343994140625 298.0937194824219 378.837158203125 289.7960510253906 C 391.9773559570313 281.5377807617188 403.7849731445313 272.1709594726563 413.9320373535156 261.9558715820313 C 427.4389953613281 248.3584136962891 437.8945617675781 233.4080047607422 445.0084533691406 217.5199432373047 C 452.35546875 201.1111145019531 456.0215759277344 183.9347686767578 455.9048767089844 166.4681854248047 C 455.8306274414063 155.3514709472656 454.2079162597656 144.2337646484375 451.0817565917969 133.423828125 C 448.0335083007813 122.88330078125 443.5197448730469 112.5060577392578 437.6658630371094 102.5805358886719 C 431.9136352539063 92.82730102539063 424.8099975585938 83.4110107421875 416.5522766113281 74.59317016601563 C 408.3669738769531 65.8526611328125 398.9771118164063 57.62405395507813 388.6434631347656 50.13595581054688 C 378.3041076660156 42.64364624023438 366.9352111816406 35.831298828125 354.8527526855469 29.88812255859375 C 342.6498107910156 23.88571166992188 329.6116333007813 18.7176513671875 316.1005249023438 14.52740478515625 C 302.3363342285156 10.25869750976563 287.9395141601563 6.961700439453125 273.3099975585938 4.727874755859375 C 258.2968139648438 2.435546875 242.8520965576172 1.23541259765625 227.4047546386719 1.1607666015625 C 226.8820495605469 1.158233642578125 226.3740386962891 1.157012939453125 225.851806640625 1.157012939453125 M 225.8518218994141 0.157012939453125 C 226.3744964599609 0.157012939453125 226.8860473632813 0.158233642578125 227.4095764160156 0.1607666015625 C 353.5469360351563 0.770172119140625 456.2955017089844 75.22554016113281 456.9048767089844 166.4614715576172 C 457.5117492675781 257.3186950683594 356.5849914550781 330.5591125488281 231.1739349365234 330.5591125488281 C 230.6512603759766 330.5591125488281 230.1398620605469 330.5578918457031 229.6163330078125 330.5553588867188 C 103.4789733886719 329.9458923339844 0.73046875 255.4906005859375 0.12103271484375 164.2546539306641 C -0.48583984375 73.39736938476563 100.4407653808594 0.157012939453125 225.8518218994141 0.157012939453125 Z" stroke="none" fill="#000"/>
            </g>
            <g id="Sustracción_1" data-name="Sustracción 1" transform="translate(0 0.083)" stroke-linecap="round">
              <path d="M 421.9639892578125 656.71630859375 C 372.8919067382813 653.7456665039063 325.1836547851563 645.1165771484375 279.760986328125 630.9712524414063 C 225.6268310546875 614.103271484375 176.9581604003906 590.1475219726563 135.1069946289063 559.7693481445313 C 93.26891326904297 529.4010009765625 60.34157943725586 494.1251831054688 37.23949813842773 454.9218444824219 C 13.33199691772461 414.363525390625 1.052329897880554 371.3463745117188 0.7415799498558044 327.0653686523438 C 0.4307466149330139 282.7812805175781 12.10958003997803 239.8757781982422 35.45357894897461 199.5406951904297 C 58.01416397094727 160.5697784423828 90.46066284179688 125.6171951293945 131.8916625976563 95.65394592285156 C 173.3363342285156 65.69235992431641 221.6899108886719 42.22877502441406 275.6092529296875 25.91510963439941 C 321.0845947265625 12.15471935272217 368.9373474121094 3.998019456863403 418.249267578125 1.577388286590576 C 358.1973266601563 8.03258228302002 303.4017028808594 31.9073314666748 267.4539184570313 68.13894653320313 C 239.5025787353516 96.31094360351563 224.8574066162109 129.5889434814453 225.1015777587891 164.3754425048828 C 225.6761474609375 246.23486328125 309.3761901855469 316.4504699707031 420.6112976074219 329.1733703613281 C 367.6090698242188 334.7032165527344 319.1294555664063 353.6950988769531 283.6424865722656 382.9117736816406 C 247.0191650390625 413.0640258789063 227.0052490234375 451.8207702636719 227.2875823974609 492.0426940917969 C 227.5920867919922 535.423583984375 251.2724151611328 576.683349609375 293.9664001464844 608.2214965820313 C 329.1819458007813 634.2352905273438 373.796630859375 651.021240234375 421.9639892578125 656.71630859375 Z" stroke="none"/>
              <path d="M 407.6144409179688 655.1815185546875 C 364.8520812988281 648.0686645507813 325.4427490234375 632.0947875976563 293.6693420410156 608.6237182617188 C 250.8455810546875 576.9896850585938 227.0932464599609 535.58837890625 226.7875823974609 492.0462036132813 C 226.5042419433594 451.6706848144531 246.5828247070313 412.7756042480469 283.3246765136719 382.5257873535156 C 317.9310913085938 354.0340576171875 364.8617553710938 335.2460021972656 416.2913818359375 329.1515502929688 C 364.7984008789063 322.5298156738281 317.6260681152344 303.2633361816406 282.6359252929688 274.422607421875 C 245.4950866699219 243.8091888427734 224.8848266601563 204.728271484375 224.6015777587891 164.3789367675781 C 224.3564147949219 129.4563598632813 239.0518341064453 96.05535888671875 267.0989074707031 67.78677368164063 C 300.2803955078125 34.34343338012695 349.4767150878906 11.40550136566162 404.0465393066406 2.937302827835083 C 359.7953491210938 6.121163368225098 316.8031311035156 13.97264003753662 275.7539978027344 26.39369201660156 C 221.8879089355469 42.69127655029297 173.5841674804688 66.13011169433594 132.1846618652344 96.05911254882813 C 90.8109130859375 125.9809417724609 58.41149520874023 160.8815307617188 35.88632965087891 199.7911987304688 C 12.58757972717285 240.0480194091797 0.9314132928848267 282.8681030273438 1.241580009460449 327.0618591308594 C 1.551746606826782 371.2536010742188 13.80807971954346 414.1864318847656 37.67024612426758 454.6680297851563 C 60.73724746704102 493.8118591308594 93.61849975585938 529.0369262695313 135.4006652832031 559.36474609375 C 177.2077484130859 589.7108764648438 225.8276672363281 613.6422119140625 279.90966796875 630.4939575195313 C 320.8467102050781 643.2422485351563 363.6365661621094 651.5060424804688 407.6144409179688 655.1815185546875 M 452.8897399902344 658.3358764648438 C 392.8724975585938 657.6104125976563 334.573486328125 648.5643310546875 279.6123352050781 631.4486694335938 C 225.4259948730469 614.564453125 176.7085723876953 590.5841674804688 134.8132476806641 560.1740112304688 C 92.91932678222656 529.76513671875 59.9459114074707 494.4386901855469 36.80874633789063 455.1756896972656 C 12.85608005523682 414.5406799316406 0.5529966354370117 371.4395141601563 0.2415799498558044 327.06884765625 C -0.06983671337366104 282.6944580078125 11.6315803527832 239.7035217285156 35.02082824707031 199.290283203125 C 57.61691284179688 160.2580261230469 90.11041259765625 125.2534408569336 131.5986633300781 95.248779296875 C 173.0884094238281 65.25460815429688 221.4918365478516 41.76636123657227 275.4644165039063 25.43652534484863 C 330.5635681152344 8.76408863067627 389.1368713378906 0.3125607073307037 449.5731201171875 0.3125607073307037 C 450.0340270996094 0.3125607073307037 450.4908752441406 0.3130460977554321 450.9519958496094 0.3140262067317963 C 326.0591735839844 0.4193595349788666 224.9672393798828 74.00961303710938 225.6015777587891 164.3719482421875 C 226.1827392578125 247.17626953125 312.1513366699219 318.0361938476563 425.5719909667969 329.1982727050781 C 312.2348327636719 339.1903686523438 227.2060852050781 409.1912841796875 227.7875823974609 492.0391845703125 C 228.4148254394531 581.4014282226563 329.3952331542969 655.9960327148438 452.8900756835938 658.3229370117188 L 452.8897399902344 658.3358764648438 Z" stroke="none" fill="#000"/>
            </g>
          </g>
          <g id="Trazado_30" data-name="Trazado 30" transform="translate(525.681 218.923) rotate(180)" fill="#fff" stroke-linecap="round">
            <path d="M 74.51068878173828 106.0438461303711 C 74.34303283691406 106.0438461303711 74.17894744873047 106.0434494018555 74.01103210449219 106.0426254272461 C 64.12265014648438 105.9948654174805 54.52170944213867 104.5480270385742 45.47488784790039 101.7423477172852 C 41.12886810302734 100.3945083618164 36.93518829345703 98.73222351074219 33.01028823852539 96.80164337158203 C 29.12492942810059 94.8905029296875 25.46928977966309 92.70002746582031 22.14488983154297 90.29104614257813 C 18.8233699798584 87.88416290283203 15.80542945861816 85.23950958251953 13.1749095916748 82.43056488037109 C 10.52222919464111 79.59794616699219 8.24048900604248 76.57344818115234 6.393069267272949 73.44104766845703 C 2.556009292602539 66.93510437011719 0.5864093899726868 60.03696441650391 0.5389893651008606 52.93824768066406 C 0.5015693306922913 47.3341064453125 1.677989363670349 41.8227653503418 4.035569190979004 36.55732727050781 C 6.319689273834229 31.45600509643555 9.677529335021973 26.65496635437012 14.01582908630371 22.2875862121582 C 17.27686882019043 19.00470542907715 21.07202911376953 15.9941463470459 25.2959098815918 13.33954620361328 C 29.54132843017578 10.67138576507568 34.21728897094727 8.364585876464844 39.19390869140625 6.48322582244873 C 44.26100921630859 4.567666053771973 49.64561080932617 3.091485977172852 55.19815063476563 2.095705986022949 C 60.9150276184082 1.070465922355652 66.83554840087891 0.5506059527397156 72.79522705078125 0.5506059527397156 C 72.962890625 0.5506059527397156 73.12696838378906 0.5510059595108032 73.29489135742188 0.5518259406089783 C 83.18326568603516 0.5995859503746033 92.78421020507813 2.046426057815552 101.8310317993164 4.852106094360352 C 106.1770477294922 6.19994592666626 110.3707275390625 7.862226009368896 114.2956314086914 9.792805671691895 C 118.1809692382813 11.70394611358643 121.8366317749023 13.8944263458252 125.1610107421875 16.30340576171875 C 128.4825439453125 18.71028518676758 131.50048828125 21.35494613647461 134.1310119628906 24.16388511657715 C 136.78369140625 26.99650573730469 139.0654296875 30.02100563049316 140.912841796875 33.15340423583984 C 144.7499084472656 39.65934753417969 146.719482421875 46.55748748779297 146.7669067382813 53.65620422363281 C 146.8043518066406 59.26034545898438 145.6279296875 64.77168273925781 143.2703552246094 70.037109375 C 140.9862670898438 75.138427734375 137.6284332275391 79.93944549560547 133.2901306152344 84.30682373046875 C 130.0290832519531 87.58972930908203 126.2339324951172 90.60028839111328 122.0100708007813 93.2548828125 C 117.7646255493164 95.92304229736328 113.0886688232422 98.22984313964844 108.1120529174805 100.1112060546875 C 103.0449523925781 102.0267639160156 97.66033172607422 103.5029449462891 92.1077880859375 104.4987258911133 C 86.39090728759766 105.5239868164063 80.47039031982422 106.0438461303711 74.51068878173828 106.0438461303711 Z" stroke="none"/>
            <path d="M 72.79522705078125 1.050605773925781 C 66.86505126953125 1.050605773925781 60.97422790527344 1.567802429199219 55.28640747070313 2.587867736816406 C 49.76399230957031 3.578224182128906 44.40918731689453 5.046188354492188 39.37071228027344 6.950927734375 C 34.4251708984375 8.820526123046875 29.77922821044922 11.11240386962891 25.56195068359375 13.76286315917969 C 21.37018585205078 16.39728546142578 17.60487365722656 19.38398742675781 14.37054443359375 22.63996887207031 C 10.07493591308594 26.96438598632813 6.751266479492188 31.71560668945313 4.491912841796875 36.76164245605469 C 2.163772583007813 41.96132659912109 1.002029418945313 47.40280532836914 1.038986206054688 52.93490600585938 C 1.0858154296875 59.94426727294922 3.032073974609375 66.75806427001953 6.823745727539063 73.18704223632813 C 8.652572631835938 76.28790283203125 10.91221618652344 79.28288269042969 13.53987121582031 82.08878326416016 C 16.14865112304688 84.87452697753906 19.14250183105469 87.49794769287109 22.43828582763672 89.88618469238281 C 25.73979187011719 92.278564453125 29.37098693847656 94.45432281494141 33.23097229003906 96.35298919677734 C 37.13255310058594 98.27208709716797 41.30181121826172 99.92464447021484 45.62298583984375 101.264762878418 C 54.62258911132813 104.0558090209961 64.17450714111328 105.4950866699219 74.01346588134766 105.5426254272461 C 74.18057250976563 105.5434265136719 74.34391021728516 105.5438232421875 74.51072692871094 105.5438232421875 C 80.44091033935547 105.5438232421875 86.33172607421875 105.0266265869141 92.01956939697266 104.0065689086914 C 97.54196929931641 103.0162048339844 102.8967895507813 101.5482482910156 107.9352722167969 99.64350891113281 C 112.8807907104492 97.77390289306641 117.5267333984375 95.48204803466797 121.744010925293 92.83156585693359 C 125.9357681274414 90.1971435546875 129.7010955810547 87.21046447753906 132.9353942871094 83.9544677734375 C 137.2310028076172 79.63006591796875 140.5546722412109 74.87884521484375 142.8140106201172 69.83280944824219 C 145.1421508789063 64.63312530517578 146.3038635253906 59.19164657592773 146.2669067382813 53.6595458984375 C 146.2200927734375 46.65018463134766 144.2738342285156 39.83636474609375 140.4821624755859 33.40740966796875 C 138.6533355712891 30.30654907226563 136.3937072753906 27.31156921386719 133.7660522460938 24.50566864013672 C 131.1572570800781 21.71992492675781 128.1633911132813 19.09650421142578 124.8676300048828 16.70826721191406 C 121.5661087036133 14.31586456298828 117.934928894043 12.14012908935547 114.0749282836914 10.24146270751953 C 110.1733703613281 8.322349548339844 106.0040893554688 6.669784545898438 101.6829071044922 5.329666137695313 C 92.68333435058594 2.538627624511719 83.13140869140625 1.099342346191406 73.29244995117188 1.051803588867188 C 73.12535095214844 1.051002502441406 72.96205139160156 1.050605773925781 72.79522705078125 1.050605773925781 M 72.79522705078125 0.0506134033203125 C 72.96369934082031 0.0506134033203125 73.12857055664063 0.0510101318359375 73.29730987548828 0.05182647705078125 C 113.9531707763672 0.2482223510742188 147.0704956054688 24.24624633789063 147.2668914794922 53.65286636352539 C 147.4625396728516 82.93743896484375 114.9324798583984 106.543815612793 74.5107421875 106.543815612793 C 74.34227752685547 106.543815612793 74.17734527587891 106.5434188842773 74.00860595703125 106.5426025390625 C 33.35272979736328 106.3462066650391 0.2354278564453125 82.34820556640625 0.0390167236328125 52.94158554077148 C -0.1566009521484375 23.65701293945313 32.37348937988281 0.0506134033203125 72.79522705078125 0.0506134033203125 Z" stroke="none" fill="#000"/>
          </g>
          <g id="Unión_2" data-name="Unión 2" transform="translate(217.986 0.151)" fill="#fff" stroke-linecap="round">
            <path d="M 236.7296752929688 660.5992431640625 C 236.1720886230469 660.5992431640625 235.6064300537109 660.5977783203125 235.0485076904297 660.594970703125 C 219.2282562255859 660.5158081054688 203.4102630615234 659.3045654296875 188.0338439941406 656.994873046875 C 173.0491790771484 654.7440795898438 158.3024291992188 651.423828125 144.2030944824219 647.1261596679688 C 130.3612670898438 642.9070434570313 117.0034255981445 637.7041625976563 104.5004272460938 631.661865234375 C 92.11867523193359 625.6781616210938 80.46726226806641 618.8194580078125 69.87009429931641 611.2764892578125 C 59.27592849731445 603.7356567382813 49.64826202392578 595.4489135742188 41.25459671020508 586.6463623046875 C 32.78376007080078 577.762939453125 25.49576187133789 568.2760620117188 19.59309577941895 558.44921875 C 13.5838451385498 548.4449462890625 8.949428558349609 537.9850463867188 5.818511962890625 527.35986328125 C 2.60692834854126 516.460693359375 0.9385951161384583 505.2513732910156 0.8599284887313843 494.043212890625 C 0.7380117774009705 476.6812133789063 4.392344951629639 459.5977172851563 11.72117805480957 443.2673034667969 C 18.81517791748047 427.4603881835938 29.25209426879883 412.557373046875 42.74201202392578 398.9724731445313 C 53.10909652709961 388.5323791503906 65.21692657470703 378.9545593261719 78.72943115234375 370.5049743652344 C 92.29709625244141 362.0208740234375 107.2664260864258 354.6838073730469 123.2214279174805 348.6976318359375 C 139.4585113525391 342.6056213378906 156.7272644042969 337.9103088378906 174.5479278564453 334.7422180175781 C 192.8942565917969 331.4806213378906 211.8998413085938 329.8268127441406 231.0365905761719 329.8268127441406 C 231.6010894775391 329.8268127441406 232.1501007080078 329.8282165527344 232.71484375 329.8310546875 C 240.4059295654297 329.8695678710938 248.1670074462891 330.1774597167969 255.7824249267578 330.7463073730469 L 255.826171875 330.7496337890625 L 255.8698425292969 330.7452087402344 C 310.9583435058594 325.1933898925781 361.3639221191406 305.6077880859375 397.8013305664063 275.5964660644531 C 434.3326721191406 245.5077209472656 454.2975158691406 207.0053863525391 454.0180053710938 167.1820526123047 C 453.7107543945313 123.4139709472656 429.3851013183594 81.86463928222656 385.5220947265625 50.18780136108398 C 349.5357360839844 24.19939613342285 303.9878234863281 7.453429698944092 254.8028869628906 1.781865835189819 C 304.8459167480469 4.744372844696045 353.4838562011719 13.35469818115234 399.80126953125 27.47380256652832 C 455.2541809082031 44.3814697265625 505.1142578125 68.42971801757813 547.9965209960938 98.95055389404297 C 590.8692016601563 129.4762268066406 624.6073608398438 164.92822265625 648.2737426757813 204.3217163085938 C 672.76953125 245.1012268066406 685.3484497070313 288.3469543457031 685.6609497070313 332.8577880859375 C 685.9733276367188 377.3692932128906 674.0012817382813 420.4888000488281 650.0770874023438 461.0183715820313 C 626.9635009765625 500.1813049316406 593.7223510742188 535.296142578125 551.2769165039063 565.3875732421875 C 508.8217468261719 595.4859008789063 459.2970886230469 619.035888671875 404.0787658691406 635.3833618164063 C 382.2972717285156 641.8328857421875 359.6862487792969 647.11328125 336.8738403320313 651.0779418945313 C 314.07958984375 655.0394897460938 290.5757751464844 657.775634765625 267.0154418945313 659.21044921875 L 267.0075988769531 659.2109985351563 L 266.9998474121094 659.2116088867188 C 257.041748046875 660.1323852539063 246.857421875 660.5992431640625 236.7296752929688 660.5992431640625 Z" stroke="none"/>
            <path d="M 236.7283325195313 660.0991821289063 C 246.8419799804688 660.0991821289063 257.0112609863281 659.633056640625 266.9537048339844 658.7138061523438 L 266.9693298339844 658.7123413085938 L 266.9849853515625 658.7113647460938 C 290.5268859863281 657.2777099609375 314.0120544433594 654.543701171875 336.7882385253906 650.5853271484375 C 359.5816040039063 646.6239624023438 382.1737060546875 641.3479614257813 403.9367980957031 634.9039916992188 C 459.1023254394531 618.5720825195313 508.5775146484375 595.046142578125 550.98779296875 564.9796752929688 C 593.3753662109375 534.9292602539063 626.5689697265625 499.8660583496094 649.6465454101563 460.7642517089844 C 673.5239868164063 420.3137817382813 685.4727172851563 377.2809753417969 685.160888671875 332.861328125 C 684.8490600585938 288.4414367675781 672.2942504882813 245.2810668945313 647.8451538085938 204.5792541503906 C 624.21435546875 165.2450714111328 590.5227661132813 129.8434295654297 547.7066040039063 99.35797882080078 C 504.8682556152344 68.86833953857422 455.0566101074219 44.84397506713867 399.655517578125 27.95206832885742 C 357.9461059570313 15.23763179779053 314.3442077636719 6.993364810943604 269.5356750488281 3.322183609008789 C 313.1663818359375 10.41689872741699 353.3670043945313 26.34949111938477 385.8147888183594 49.78243255615234 C 429.8103332519531 81.55497741699219 454.2096252441406 123.2469787597656 454.5179748535156 167.1785278320313 C 454.7985229492188 207.1554260253906 434.7690734863281 245.7960662841797 398.1192321777344 275.982421875 C 361.6064147949219 306.0558776855469 311.1058044433594 325.6809692382813 255.9199676513672 331.2427062988281 L 255.8327026367188 331.2514343261719 L 255.7452392578125 331.244873046875 C 248.1411590576172 330.6769714355469 240.3917846679688 330.3695373535156 232.7123413085938 330.3310546875 C 232.1481628417969 330.3282470703125 231.6000671386719 330.3268737792969 231.0366973876953 330.3268737792969 C 211.9291534423828 330.3268737792969 192.9530639648438 331.9780578613281 174.6355133056641 335.2345275878906 C 156.8447875976563 338.3973388671875 139.6056976318359 343.0845336914063 123.3971557617188 349.1658020019531 C 107.4732437133789 355.1403503417969 92.53406524658203 362.4625244140625 78.99452209472656 370.9289855957031 C 65.51461029052734 379.358154296875 53.43688201904297 388.9119873046875 43.0967903137207 399.3247985839844 C 29.64942932128906 412.8668823242188 19.24661064147949 427.7202453613281 12.17742824554443 443.4720764160156 C 4.878064632415771 459.7366027832031 1.23861026763916 476.7500610351563 1.359973907470703 494.039794921875 C 1.438246607780457 505.2012634277344 3.099701166152954 516.3641357421875 6.298155784606934 527.2186279296875 C 9.417064666748047 537.802978515625 14.03424644470215 548.223876953125 20.02170181274414 558.1917724609375 C 25.90542793273926 567.987060546875 33.17097473144531 577.4445190429688 41.61642837524414 586.3013305664063 C 49.98824691772461 595.080810546875 59.59170150756836 603.3466186523438 70.16006469726563 610.8690795898438 C 80.73442840576172 618.3958740234375 92.36142730712891 625.2400512695313 104.7179718017578 631.2116088867188 C 117.197883605957 637.2427978515625 130.5316162109375 642.436279296875 144.3487854003906 646.6478881835938 C 158.4247894287109 650.9383544921875 173.1476135253906 654.2532348632813 188.1080627441406 656.5004272460938 C 203.4607849121094 658.8065185546875 219.2546997070313 660.015869140625 235.0509796142578 660.094970703125 C 235.6022491455078 660.0977783203125 236.1666107177734 660.0991821289063 236.7283325195313 660.0991821289063 M 236.7283020019531 661.0991821289063 C 236.167724609375 661.0991821289063 235.6075592041016 661.0977783203125 235.0459747314453 661.094970703125 C 106.0754318237305 660.4492797851563 1.002973914146423 585.6602783203125 0.3599739074707031 494.0467834472656 C -0.2802909016609192 402.8300476074219 102.852668762207 329.3268737792969 231.0366821289063 329.3268737792969 C 231.6024780273438 329.3268737792969 232.1505737304688 329.3282165527344 232.7173309326172 329.3310546875 C 240.5103302001953 329.3700561523438 248.2188873291016 329.6799621582031 255.8197021484375 330.2477111816406 C 369.4158020019531 318.7994384765625 454.09423828125 249.2842559814453 453.5179748535156 167.1855163574219 C 452.8851623535156 77.02834320068359 349.1376037597656 2.100976943969727 222.2484283447266 0.1718859821557999 L 222.2483367919922 0.1544314473867416 C 283.7953491210938 0.7875223755836487 343.5792541503906 9.812704086303711 399.9470520019531 26.99552154541016 C 455.4508972167969 43.91870498657227 505.3598022460938 67.99079132080078 548.2864379882813 98.54325103759766 C 591.2130737304688 129.1073455810547 624.9990844726563 164.6094360351563 648.7023315429688 204.0642547607422 C 673.2448120117188 244.9215240478516 685.8477783203125 288.2543334960938 686.160888671875 332.8543395996094 C 686.4739990234375 377.4600830078125 674.4784545898438 420.6639709472656 650.5076904296875 461.2726135253906 C 627.3568115234375 500.4986267089844 594.0667114257813 535.6648559570313 551.566162109375 565.7955322265625 C 509.0654296875 595.9260864257813 459.4908752441406 619.5 404.220703125 635.86279296875 C 360.3979797363281 648.8386840820313 314.4051513671875 656.8253173828125 267.0458068847656 659.7095336914063 C 257.125 660.6267700195313 247.0112457275391 661.0991821289063 236.7283020019531 661.0991821289063 Z" stroke="none" fill="#000"/>
          </g>
        </g>
        <g id="Trazado_31" data-name="Trazado 31" transform="translate(528.015 568.431) rotate(180)" stroke-linecap="round">
          <path d="M 74.51068878173828 106.0438461303711 C 74.34303283691406 106.0438461303711 74.17894744873047 106.0434494018555 74.01103210449219 106.0426254272461 C 64.12265014648438 105.9948654174805 54.52170944213867 104.5480270385742 45.47488784790039 101.7423477172852 C 41.12886810302734 100.3945083618164 36.93518829345703 98.73222351074219 33.01028823852539 96.80164337158203 C 29.12492942810059 94.8905029296875 25.46928977966309 92.70002746582031 22.14488983154297 90.29104614257813 C 18.8233699798584 87.88416290283203 15.80542945861816 85.23950958251953 13.1749095916748 82.43056488037109 C 10.52222919464111 79.59794616699219 8.24048900604248 76.57344818115234 6.393069267272949 73.44104766845703 C 2.556009292602539 66.93510437011719 0.5864093899726868 60.03696441650391 0.5389893651008606 52.93824768066406 C 0.5015693306922913 47.3341064453125 1.677989363670349 41.8227653503418 4.035569190979004 36.55732727050781 C 6.319689273834229 31.45600509643555 9.677529335021973 26.65496635437012 14.01582908630371 22.2875862121582 C 17.27686882019043 19.00470542907715 21.07202911376953 15.9941463470459 25.2959098815918 13.33954620361328 C 29.54132843017578 10.67138576507568 34.21728897094727 8.364585876464844 39.19390869140625 6.48322582244873 C 44.26100921630859 4.567666053771973 49.64561080932617 3.091485977172852 55.19815063476563 2.095705986022949 C 60.9150276184082 1.070465922355652 66.83554840087891 0.5506059527397156 72.79522705078125 0.5506059527397156 C 72.962890625 0.5506059527397156 73.12696838378906 0.5510059595108032 73.29489135742188 0.5518259406089783 C 83.18326568603516 0.5995859503746033 92.78421020507813 2.046426057815552 101.8310317993164 4.852106094360352 C 106.1770477294922 6.19994592666626 110.3707275390625 7.862226009368896 114.2956314086914 9.792805671691895 C 118.1809692382813 11.70394611358643 121.8366317749023 13.8944263458252 125.1610107421875 16.30340576171875 C 128.4825439453125 18.71028518676758 131.50048828125 21.35494613647461 134.1310119628906 24.16388511657715 C 136.78369140625 26.99650573730469 139.0654296875 30.02100563049316 140.912841796875 33.15340423583984 C 144.7499084472656 39.65934753417969 146.719482421875 46.55748748779297 146.7669067382813 53.65620422363281 C 146.8043518066406 59.26034545898438 145.6279296875 64.77168273925781 143.2703552246094 70.037109375 C 140.9862670898438 75.138427734375 137.6284332275391 79.93944549560547 133.2901306152344 84.30682373046875 C 130.0290832519531 87.58972930908203 126.2339324951172 90.60028839111328 122.0100708007813 93.2548828125 C 117.7646255493164 95.92304229736328 113.0886688232422 98.22984313964844 108.1120529174805 100.1112060546875 C 103.0449523925781 102.0267639160156 97.66033172607422 103.5029449462891 92.1077880859375 104.4987258911133 C 86.39090728759766 105.5239868164063 80.47039031982422 106.0438461303711 74.51068878173828 106.0438461303711 Z" stroke="none"/>
          <path d="M 72.79522705078125 1.050605773925781 C 66.86505126953125 1.050605773925781 60.97422790527344 1.567802429199219 55.28640747070313 2.587867736816406 C 49.76399230957031 3.578224182128906 44.40918731689453 5.046188354492188 39.37071228027344 6.950927734375 C 34.4251708984375 8.820526123046875 29.77922821044922 11.11240386962891 25.56195068359375 13.76286315917969 C 21.37018585205078 16.39728546142578 17.60487365722656 19.38398742675781 14.37054443359375 22.63996887207031 C 10.07493591308594 26.96438598632813 6.751266479492188 31.71560668945313 4.491912841796875 36.76164245605469 C 2.163772583007813 41.96132659912109 1.002029418945313 47.40280532836914 1.038986206054688 52.93490600585938 C 1.0858154296875 59.94426727294922 3.032073974609375 66.75806427001953 6.823745727539063 73.18704223632813 C 8.652572631835938 76.28790283203125 10.91221618652344 79.28288269042969 13.53987121582031 82.08878326416016 C 16.14865112304688 84.87452697753906 19.14250183105469 87.49794769287109 22.43828582763672 89.88618469238281 C 25.73979187011719 92.278564453125 29.37098693847656 94.45432281494141 33.23097229003906 96.35298919677734 C 37.13255310058594 98.27208709716797 41.30181121826172 99.92464447021484 45.62298583984375 101.264762878418 C 54.62258911132813 104.0558090209961 64.17450714111328 105.4950866699219 74.01346588134766 105.5426254272461 C 74.18057250976563 105.5434265136719 74.34391021728516 105.5438232421875 74.51072692871094 105.5438232421875 C 80.44091033935547 105.5438232421875 86.33172607421875 105.0266265869141 92.01956939697266 104.0065689086914 C 97.54196929931641 103.0162048339844 102.8967895507813 101.5482482910156 107.9352722167969 99.64350891113281 C 112.8807907104492 97.77390289306641 117.5267333984375 95.48204803466797 121.744010925293 92.83156585693359 C 125.9357681274414 90.1971435546875 129.7010955810547 87.21046447753906 132.9353942871094 83.9544677734375 C 137.2310028076172 79.63006591796875 140.5546722412109 74.87884521484375 142.8140106201172 69.83280944824219 C 145.1421508789063 64.63312530517578 146.3038635253906 59.19164657592773 146.2669067382813 53.6595458984375 C 146.2200927734375 46.65018463134766 144.2738342285156 39.83636474609375 140.4821624755859 33.40740966796875 C 138.6533355712891 30.30654907226563 136.3937072753906 27.31156921386719 133.7660522460938 24.50566864013672 C 131.1572570800781 21.71992492675781 128.1633911132813 19.09650421142578 124.8676300048828 16.70826721191406 C 121.5661087036133 14.31586456298828 117.934928894043 12.14012908935547 114.0749282836914 10.24146270751953 C 110.1733703613281 8.322349548339844 106.0040893554688 6.669784545898438 101.6829071044922 5.329666137695313 C 92.68333435058594 2.538627624511719 83.13140869140625 1.099342346191406 73.29244995117188 1.051803588867188 C 73.12535095214844 1.051002502441406 72.96205139160156 1.050605773925781 72.79522705078125 1.050605773925781 M 72.79522705078125 0.0506134033203125 C 72.96369934082031 0.0506134033203125 73.12857055664063 0.0510101318359375 73.29730987548828 0.05182647705078125 C 113.9531707763672 0.2482223510742188 147.0704956054688 24.24624633789063 147.2668914794922 53.65286636352539 C 147.4625396728516 82.93743896484375 114.9324798583984 106.543815612793 74.5107421875 106.543815612793 C 74.34227752685547 106.543815612793 74.17734527587891 106.5434188842773 74.00860595703125 106.5426025390625 C 33.35272979736328 106.3462066650391 0.2354278564453125 82.34820556640625 0.0390167236328125 52.94158554077148 C -0.1566009521484375 23.65701293945313 32.37348937988281 0.0506134033203125 72.79522705078125 0.0506134033203125 Z" stroke="none" fill="#707070"/>
        </g>
      </g>
    </g>
    <text id="GOA" transform="translate(329.469 2635.769)" fill="#fff" stroke="#fff" stroke-linecap="round" stroke-width="4" font-size="330" font-family="EngraversMT, Engravers MT" letter-spacing="0.2em"><tspan x="97.729" y="309">GOA</tspan></text>
  </g>
</svg>
